<svg width="6" height="9" viewBox="0 0 6 9" fill="none" xmlns="http://www.w3.org/2000/svg">
<path d="M0.971839 0.12494C0.865448 0.0427112 0.724731 -0.00205533 0.579333 7.2525e-05C0.433935 0.00220038 0.295209 0.0510565 0.192381 0.136347C0.0895535 0.221638 0.0306519 0.336705 0.0280865 0.457306C0.0255211 0.577906 0.0794923 0.694624 0.178629 0.782871L4.64605 4.48839L0.178629 8.1939C0.123488 8.23652 0.0792608 8.28792 0.048586 8.34502C0.0179112 8.40212 0.00141693 8.46377 8.73428e-05 8.52627C-0.00124225 8.58878 0.0126201 8.65086 0.0408472 8.70883C0.0690743 8.76679 0.111088 8.81945 0.164382 8.86365C0.217676 8.90786 0.281158 8.94271 0.351041 8.96612C0.420925 8.98953 0.495777 9.00103 0.571135 8.99993C0.646492 8.99882 0.720809 8.98514 0.789654 8.9597C0.858498 8.93426 0.920458 8.89757 0.971839 8.85184L5.83587 4.81735C5.94097 4.73007 6 4.61175 6 4.48839C6 4.36503 5.94097 4.24671 5.83587 4.15942L0.971839 0.12494Z" fill="black"/>
</svg>
