<svg width="30" height="30" viewBox="0 0 30 30" fill="none" xmlns="http://www.w3.org/2000/svg">
<path d="M14.1431 24.6494H15.8664C16.4314 24.6494 16.8551 24.3104 16.9775 23.7548L17.4484 21.7679C17.7686 21.6549 18.0699 21.5324 18.3524 21.4006L20.0945 22.4741C20.5559 22.766 21.1115 22.719 21.4976 22.3329L22.7124 21.1181C23.0985 20.732 23.155 20.1576 22.8442 19.6867L21.7801 17.9634C21.912 17.6809 22.0344 17.3796 22.1286 17.0877L24.1343 16.6168C24.6899 16.4944 25.0195 16.0707 25.0195 15.5056V13.8106C25.0195 13.255 24.6899 12.8218 24.1343 12.6994L22.1474 12.2192C22.0438 11.8896 21.912 11.5977 21.799 11.3434L22.8631 9.58245C23.1644 9.10219 23.1267 8.56543 22.7218 8.16992L21.4976 6.95515C21.1021 6.59731 20.603 6.53139 20.1228 6.79506L18.3524 7.88742C18.0793 7.75558 17.778 7.63316 17.4578 7.52016L16.9775 5.50495C16.8551 4.94936 16.4314 4.61035 15.8664 4.61035H14.1431C13.5686 4.61035 13.1449 4.94936 13.0225 5.50495L12.5516 7.51074C12.2314 7.61433 11.9207 7.73675 11.6382 7.878L9.87723 6.79506C9.39697 6.53139 8.9073 6.58789 8.50237 6.95515L7.27818 8.16992C6.87326 8.56543 6.83559 9.10219 7.13693 9.58245L8.20103 11.3434C8.08803 11.5977 7.96561 11.8896 7.85261 12.2192L5.86565 12.6994C5.31006 12.8218 4.98047 13.255 4.98047 13.8106V15.5056C4.98047 16.0707 5.31006 16.4944 5.86565 16.6168L7.87144 17.0877C7.96561 17.3796 8.08803 17.6809 8.21987 17.9634L7.15576 19.6867C6.84501 20.1576 6.90151 20.732 7.29701 21.1181L8.50237 22.3329C8.88846 22.719 9.44406 22.766 9.9149 22.4741L11.6476 21.4006C11.9301 21.5324 12.2314 21.6549 12.5516 21.7679L13.0225 23.7548C13.1449 24.3104 13.5686 24.6494 14.1431 24.6494ZM15 17.9258C13.192 17.9258 11.7135 16.4379 11.7135 14.6205C11.7135 12.8218 13.192 11.3434 15 11.3434C16.8175 11.3434 18.2959 12.8218 18.2959 14.6205C18.2959 16.4379 16.8175 17.9258 15 17.9258Z" fill="#101A24"/>
</svg>
