<svg width="22" height="22" viewBox="0 0 22 22" fill="none" xmlns="http://www.w3.org/2000/svg">
<g clip-path="url(#clip0_1306_4749)">
<path d="M18.3333 2.75H3.66663C2.14784 2.75 0.916626 3.98122 0.916626 5.5V18.3333C0.916626 19.8521 2.14784 21.0833 3.66663 21.0833H18.3333C19.8521 21.0833 21.0833 19.8521 21.0833 18.3333V5.5C21.0833 3.98122 19.8521 2.75 18.3333 2.75Z" stroke="#666466" stroke-width="2" stroke-linecap="round" stroke-linejoin="round"/>
<path d="M0.916626 8.25H21.0833" stroke="#666466" stroke-width="2" stroke-linecap="round" stroke-linejoin="round"/>
<path d="M11 4.58335V0.916687" stroke="#666466" stroke-width="2" stroke-linecap="round" stroke-linejoin="round"/>
<path d="M5.5 4.58335V0.916687" stroke="#666466" stroke-width="2" stroke-linecap="round" stroke-linejoin="round"/>
<path d="M16.5 4.58335V0.916687" stroke="#666466" stroke-width="2" stroke-linecap="round" stroke-linejoin="round"/>
<path d="M4.58325 12.8334H6.41659" stroke="#666466" stroke-width="2" stroke-linecap="round" stroke-linejoin="round"/>
<path d="M10.0833 12.8334H11.9166" stroke="#666466" stroke-width="2" stroke-linecap="round" stroke-linejoin="round"/>
<path d="M15.5833 12.8334H17.4166" stroke="#666466" stroke-width="2" stroke-linecap="round" stroke-linejoin="round"/>
<path d="M4.58325 16.5H6.41659" stroke="#666466" stroke-width="2" stroke-linecap="round" stroke-linejoin="round"/>
<path d="M10.0833 16.5H11.9166" stroke="#666466" stroke-width="2" stroke-linecap="round" stroke-linejoin="round"/>
<path d="M15.5833 16.5H17.4166" stroke="#666466" stroke-width="2" stroke-linecap="round" stroke-linejoin="round"/>
</g>
<defs>
<clipPath id="clip0_1306_4749">
<rect width="22" height="22" fill="white"/>
</clipPath>
</defs>
</svg>
