<svg width="64" height="64" viewBox="0 0 64 64" fill="none" xmlns="http://www.w3.org/2000/svg">
<path d="M32 28C29.7875 28 28 29.7875 28 32C28 34.2125 29.7875 36 32 36C34.2125 36 36 34.2125 36 32C36 29.7875 34.2125 28 32 28Z" fill="black"/>
<path d="M16.05 28C13.8375 28 12.05 29.7875 12.05 32C12.05 34.2125 13.8375 36 16.05 36C18.2625 36 20.05 34.2125 20.05 32C20.05 29.7875 18.25 28 16.05 28Z" fill="black"/>
<path d="M48 28C45.7875 28 44 29.7875 44 32C44 34.2125 45.7875 36 48 36C50.2125 36 52 34.2125 52 32C52 29.7875 50.2125 28 48 28Z" fill="black"/>
</svg>
