<svg width="64" height="64" viewBox="0 0 64 64" fill="none" xmlns="http://www.w3.org/2000/svg">
<path d="M25.03 51.915C25.03 54.173 26.902 56.004 29.212 56.004H34.788C37.098 56.004 38.97 54.173 38.97 51.915V49.993H25.03V51.915Z" fill="black"/>
<path d="M44.204 31.789C45.993 29.296 46.939 26.384 46.939 23.367C46.939 15.289 40.237 8.718 32 8.718C23.762 8.718 17.061 15.29 17.061 23.367C17.061 26.237 17.919 29.022 19.545 31.429C19.62 31.565 19.697 31.689 19.77 31.783C22.542 35.654 23.099 36.918 23.099 37.704V40.504H22.356C21.667 40.504 21.111 40.764 21.111 41.589V46.919C21.111 47.743 21.668 48.167 22.356 48.167H41.645C42.334 48.167 42.89 47.743 42.89 46.919V41.589C42.89 40.764 42.333 40.504 41.645 40.504H40.9V37.704C40.9 37.043 41.155 36.042 44.204 31.789Z" fill="black"/>
</svg>
