<svg width="64" height="64" viewBox="0 0 64 64" fill="none" xmlns="http://www.w3.org/2000/svg">
<path d="M46.7598 15C43.285 15 41.246 16.3021 39.4876 19.6445C39.3869 19.8359 39.1884 19.9557 38.9721 19.9557C38.7559 19.9557 38.5574 19.8359 38.4568 19.6445C36.7335 16.3691 35.4368 15 31.8649 15C31.2955 15 30.7414 15.067 30.2101 15.1916C29.5 15.5101 28.8065 15.7924 28.1565 16.0303C26.4813 17.049 25.2958 18.7405 25.049 20.7316C25.0165 20.994 25 21.2509 25 21.4955C25 22.7741 25.2553 23.9788 25.7803 25.1781C26.4261 26.6541 27.4718 28.1094 29.0709 29.7581C30.5655 31.2992 32.3783 32.8404 34.2976 34.4719L34.3215 34.4921C35.9416 35.8694 37.613 37.29 39.3123 38.8816C41.0153 37.2869 42.6901 35.8636 44.3139 34.4841L44.3286 34.4716C46.2501 32.8389 48.0651 31.2969 49.5588 29.7579C51.1594 28.1089 52.206 26.6536 52.8524 25.1779C53.378 23.9785 53.6334 22.774 53.6334 21.4954C53.6334 21.2507 53.6169 20.9938 53.5844 20.7315C53.1791 17.464 50.2454 15 46.7598 15Z" fill="black"/>
<path d="M21.7525 33.593C24.4328 33.9146 31.578 37.1158 33.8726 40.2244C34.425 40.9726 34.6502 41.6533 34.5423 42.2475C34.5295 42.323 34.5133 42.3945 34.4952 42.4629C34.3535 42.8001 34.1477 42.9286 33.9883 42.9969C33.173 43.3469 31.1653 43.071 26.2306 39.77C26.1061 39.6866 26.0003 39.6159 25.9161 39.5605C25.6471 39.384 25.2858 39.459 25.1095 39.728C24.9331 39.997 25.008 40.3581 25.277 40.5346C25.359 40.5884 25.4618 40.657 25.5828 40.7383C28.1286 42.4413 31.1825 44.2748 33.3373 44.2748C33.7425 44.2748 34.1155 44.21 34.4478 44.0675C34.492 44.0485 34.5375 44.0264 34.5833 44.0026C34.677 44.0135 34.7738 44.0021 34.866 43.9651C36.7435 43.2148 40.0402 42.407 42.842 42.407C43.4992 42.407 44.0851 42.454 44.5833 42.5466C45.4453 42.703 46.6278 43.3241 47.1188 44.0936C47.3462 44.45 47.4102 44.8015 47.3143 45.1686C47.14 45.8294 45.4038 47.0273 41.0856 48.2239C37.6976 49.163 33.7327 49.7939 31.2196 49.7939C30.4942 49.7939 29.8992 49.7399 29.4987 49.638C27.1115 49.0335 25.6975 47.9516 24.3301 46.9054C22.5321 45.5296 20.676 44.1093 16.8247 43.9521V33.4511C17.0172 33.4455 17.2661 33.4418 17.5878 33.4418C19.1071 33.4416 21.2218 33.527 21.7525 33.593Z" fill="black"/>
<path d="M15.8247 32.3196V32.9021V44.5205V46.299H9.99998V32.3196H15.8247ZM12.5003 43.799C12.6086 43.9073 12.7588 43.969 12.9127 43.969C13.0653 43.969 13.2156 43.9073 13.324 43.799C13.4323 43.6895 13.4952 43.5404 13.4952 43.3866C13.4952 43.2329 13.4323 43.0825 13.324 42.9741C13.2156 42.8659 13.0665 42.8041 12.9127 42.8041C12.759 42.8041 12.6086 42.8659 12.5003 42.9741C12.3921 43.0825 12.3303 43.2328 12.3303 43.3866C12.3303 43.5391 12.3921 43.6895 12.5003 43.799Z" fill="black"/>
</svg>
