<svg width="64" height="64" viewBox="0 0 64 64" fill="none" xmlns="http://www.w3.org/2000/svg">
<path d="M24 30H14C12.4087 30 10.8826 29.3679 9.75736 28.2426C8.63214 27.1174 8 25.5913 8 24V14C8 12.4087 8.63214 10.8826 9.75736 9.75736C10.8826 8.63214 12.4087 8 14 8H24C25.5913 8 27.1174 8.63214 28.2426 9.75736C29.3679 10.8826 30 12.4087 30 14V24C30 25.5913 29.3679 27.1174 28.2426 28.2426C27.1174 29.3679 25.5913 30 24 30Z" fill="black"/>
<path d="M50 30H40C38.4087 30 36.8826 29.3679 35.7574 28.2426C34.6321 27.1174 34 25.5913 34 24V14C34 12.4087 34.6321 10.8826 35.7574 9.75736C36.8826 8.63214 38.4087 8 40 8H50C51.5913 8 53.1174 8.63214 54.2426 9.75736C55.3679 10.8826 56 12.4087 56 14V24C56 25.5913 55.3679 27.1174 54.2426 28.2426C53.1174 29.3679 51.5913 30 50 30Z" fill="black"/>
<path d="M24 56H14C12.4087 56 10.8826 55.3679 9.75736 54.2426C8.63214 53.1174 8 51.5913 8 50V40C8 38.4087 8.63214 36.8826 9.75736 35.7574C10.8826 34.6321 12.4087 34 14 34H24C25.5913 34 27.1174 34.6321 28.2426 35.7574C29.3679 36.8826 30 38.4087 30 40V50C30 51.5913 29.3679 53.1174 28.2426 54.2426C27.1174 55.3679 25.5913 56 24 56Z" fill="black"/>
<path d="M50 56H40C38.4087 56 36.8826 55.3679 35.7574 54.2426C34.6321 53.1174 34 51.5913 34 50V40C34 38.4087 34.6321 36.8826 35.7574 35.7574C36.8826 34.6321 38.4087 34 40 34H50C51.5913 34 53.1174 34.6321 54.2426 35.7574C55.3679 36.8826 56 38.4087 56 40V50C56 51.5913 55.3679 53.1174 54.2426 54.2426C53.1174 55.3679 51.5913 56 50 56Z" fill="black"/>
</svg>
