<svg width="64" height="64" viewBox="0 0 64 64" fill="none" xmlns="http://www.w3.org/2000/svg">
<path d="M62.869 16.842H62.812C61.716 16.849 61.546 15.897 61.527 15.455V8.54199C61.527 7.80399 60.929 7.20599 60.193 7.20599H40.428C35.469 7.20599 33.619 9.04399 33.16 9.62099L33.034 9.79599L33.033 9.79899L32.642 10.335C32.641 10.335 32.641 10.335 32.641 10.335C32.116 11.056 31.659 10.749 31.439 10.513L30.691 9.57999L30.321 9.13399C29.699 8.48099 28.078 7.20599 24.865 7.20599H3.80803C3.07003 7.20599 2.47203 7.80399 2.47203 8.54199V15.367C2.47203 16.562 1.82303 16.802 1.42503 16.842H1.12903C0.805025 16.862 0.0510254 17.05 0.0510254 18.437V50.966C0.0510254 51.764 0.698025 52.41 1.49603 52.41H20.714C26.845 52.41 29.517 54.722 30.318 55.609L30.775 56.175H30.776C30.776 56.175 32.002 57.562 33.294 56.175L33.562 55.861V55.862L33.566 55.859L33.908 55.459C33.918 55.447 34 55.355 34.119 55.233C35.142 54.238 37.699 52.41 42.699 52.41H62.504C63.303 52.41 63.949 51.764 63.949 50.966V18.122C63.949 16.946 63.098 16.848 62.869 16.842ZM58.551 45.862C58.551 46.503 58.016 47.02 57.35 47.02H41.055C35.256 47.02 33.151 49.64 33.151 49.64L32.884 49.998L32.759 50.171C32.758 50.171 32.758 50.171 32.758 50.171C32.205 50.922 31.392 50.177 31.388 50.173L31.013 49.704C30.735 49.37 28.605 47.019 23.45 47.019H6.65003C5.98703 47.019 5.45103 46.501 5.45103 45.861V11.199C5.45103 10.559 5.98703 10.041 6.65003 10.041H19.693C29.395 10.041 30.314 15.552 30.377 17.153V41.259C30.377 43.011 31.212 43.34 31.683 43.388H32.384C32.864 43.34 33.627 43.055 33.627 41.688V16.842H33.619C33.691 14.837 34.473 10.04 40.308 10.04H57.35C58.016 10.04 58.551 10.558 58.551 11.198V45.862Z" fill="#241F20"/>
</svg>
