<svg width="64" height="64" viewBox="0 0 64 64" fill="none" xmlns="http://www.w3.org/2000/svg">
<path d="M56.6428 8.50113C56.2421 7.93689 55.7232 7.46683 55.1221 7.12376C54.5211 6.78068 53.8525 6.57282 53.1629 6.5147C52.4733 6.45657 51.7793 6.54956 51.1293 6.78719C50.4794 7.02482 49.889 7.40136 49.3995 7.89057L39.9235 17.3668L15.1564 10.082C14.7886 9.97379 14.3984 9.96665 14.0269 10.0614C13.6553 10.1561 13.3162 10.3493 13.0451 10.6204L10.3126 13.3526C10.0871 13.5781 9.91497 13.8513 9.8089 14.1521C9.70284 14.4529 9.66552 14.7736 9.69969 15.0907C9.73386 15.4078 9.83866 15.7132 10.0064 15.9844C10.1741 16.2557 10.4005 16.4859 10.6689 16.6582L28.9192 28.3709L27.2544 30.0359C25.7841 31.5136 24.447 33.1182 23.2586 34.8309L10.6424 33.485C10.3242 33.4511 10.0024 33.4889 9.70063 33.5955C9.39889 33.7022 9.12483 33.875 8.89856 34.1014L7.15007 35.8496C6.9235 36.0762 6.75058 36.3506 6.64402 36.6528C6.53746 36.9551 6.49998 37.2773 6.53433 37.5959C6.56867 37.9145 6.67398 38.2213 6.84249 38.4939C7.01101 38.7664 7.23846 38.9977 7.50813 39.1708L18.0676 45.9473L24.8544 56.5226C25.0263 56.7904 25.2559 57.0163 25.5265 57.1836C25.7971 57.351 26.1018 57.4556 26.4181 57.4897C26.7345 57.5238 27.0544 57.4866 27.3545 57.3808C27.6546 57.275 27.9271 57.1033 28.1521 56.8784L29.919 55.1114C30.1437 54.8866 30.3152 54.6145 30.421 54.3148C30.5269 54.0152 30.5643 53.6957 30.5306 53.3797L29.1843 40.7564C30.897 39.5681 32.5015 38.2309 33.9791 36.7605L35.644 35.0958L47.345 53.3275C47.5187 53.5981 47.7508 53.8264 48.0243 53.9955C48.2978 54.1646 48.6057 54.2703 48.9254 54.3048C49.2451 54.3393 49.5685 54.3017 49.8718 54.1948C50.175 54.0879 50.4505 53.9144 50.6779 53.687L53.3872 50.9775C53.6606 50.7041 53.8553 50.3621 53.9508 49.9874C54.0463 49.6128 54.0392 49.2193 53.9301 48.8483L46.6484 24.0917L55.9447 14.7952C57.6197 13.1201 58.0273 10.4233 56.6428 8.50113Z" fill="black"/>
</svg>
