<svg width="64" height="64" viewBox="0 0 64 64" fill="none" xmlns="http://www.w3.org/2000/svg">
<path d="M14 50C10.6 50 8 47.4 8 44V20C8 16.6 10.6 14 14 14C17.4 14 20 16.6 20 20V44C20 47.4 17.4 50 14 50Z" fill="black"/>
<path d="M50 50C46.6 50 44 47.4 44 44V20C44 16.6 46.6 14 50 14C53.4 14 56 16.6 56 20V44C56 47.4 53.4 50 50 50Z" fill="black"/>
<path d="M46 34H18C16.8 34 16 33.2 16 32C16 30.8 16.8 30 18 30H46C47.2 30 48 30.8 48 32C48 33.2 47.2 34 46 34Z" fill="black"/>
<path d="M4 20.4C1.6 21.2 0 23.4 0 26V38C0 40.6 1.6 42.8 4 43.6V20.4Z" fill="black"/>
<path d="M60 20.4V43.6C62.4 42.8 64 40.6 64 38V26C64 23.4 62.4 21.2 60 20.4Z" fill="black"/>
</svg>
