<svg width="64" height="64" viewBox="0 0 64 64" fill="none" xmlns="http://www.w3.org/2000/svg">
<g clip-path="url(#clip0_18_457)">
<path d="M51 32.97C54.5843 32.97 57.49 30.0643 57.49 26.48C57.49 22.8957 54.5843 19.99 51 19.99C47.4157 19.99 44.51 22.8957 44.51 26.48C44.51 30.0643 47.4157 32.97 51 32.97Z" fill="black"/>
<path d="M13 32.97C16.5843 32.97 19.49 30.0643 19.49 26.48C19.49 22.8957 16.5843 19.99 13 19.99C9.41568 19.99 6.51001 22.8957 6.51001 26.48C6.51001 30.0643 9.41568 32.97 13 32.97Z" fill="black"/>
<path d="M17.3 39.585C17.1567 39.7883 17.0167 39.995 16.88 40.205C14.9956 43.1129 13.9952 46.5049 14 49.97H50C50.0036 46.5228 49.0123 43.1477 47.145 40.25C47.0084 40.04 46.8684 39.8333 46.725 39.63C45.0626 37.2776 42.8599 35.3584 40.302 34.0339C37.744 32.7093 34.9056 32.018 32.025 32.018C29.1445 32.018 26.306 32.7093 23.748 34.0339C21.1901 35.3584 18.9874 37.2776 17.325 39.63L17.3 39.585Z" fill="black"/>
<path d="M0 45.97H10.37C11.2492 41.2327 13.6592 36.9149 17.23 33.68C15.2724 33.0064 13.1822 32.81 11.1334 33.1073C9.08453 33.4045 7.13633 34.1868 5.45088 35.3891C3.76543 36.5913 2.39148 38.1786 1.44337 40.0191C0.495258 41.8595 0.000408117 43.8997 0 45.97H0Z" fill="black"/>
<path d="M32 31.97C36.9623 31.97 40.985 27.9473 40.985 22.985C40.985 18.0227 36.9623 14 32 14C27.0377 14 23.015 18.0227 23.015 22.985C23.015 27.9473 27.0377 31.97 32 31.97Z" fill="black"/>
<path d="M51 32.97C49.5604 32.9708 48.131 33.2108 46.77 33.68C50.3408 36.9149 52.7509 41.2327 53.63 45.97H64C64 42.5222 62.6304 39.2156 60.1924 36.7776C57.7544 34.3396 54.4478 32.97 51 32.97Z" fill="black"/>
</g>
<defs>
<clipPath id="clip0_18_457">
<rect width="64" height="64" fill="white"/>
</clipPath>
</defs>
</svg>
