<svg width="64" height="64" viewBox="0 0 64 64" fill="none" xmlns="http://www.w3.org/2000/svg">
<g clip-path="url(#clip0_19_505)">
<path d="M32 64C38.329 64 44.5159 62.1232 49.7782 58.607C55.0406 55.0908 59.1421 50.0931 61.5641 44.2459C63.9861 38.3986 64.6198 31.9645 63.3851 25.7571C62.1504 19.5497 59.1027 13.8479 54.6274 9.37258C50.1521 4.8973 44.4503 1.8496 38.2429 0.614872C32.0355 -0.619858 25.6014 0.0138512 19.7541 2.43586C13.9069 4.85786 8.90916 8.95938 5.39296 14.2218C1.87675 19.4841 -1.52588e-05 25.671 -1.52588e-05 32C0.00925064 40.4841 3.38364 48.618 9.3828 54.6172C15.382 60.6163 23.5159 63.9907 32 64V64ZM32 3C37.7356 3 43.3425 4.70082 48.1115 7.88738C52.8805 11.0739 56.5976 15.6031 58.7925 20.9022C60.9874 26.2012 61.5617 32.0322 60.4428 37.6576C59.3238 43.2831 56.5618 48.4504 52.5061 52.5061C48.4504 56.5618 43.2831 59.3238 37.6576 60.4428C32.0322 61.5617 26.2012 60.9874 20.9022 58.7925C15.6031 56.5976 11.0739 52.8806 7.88737 48.1115C4.70081 43.3425 2.99998 37.7357 2.99998 32C3.00925 24.3116 6.06757 16.9407 11.5041 11.5041C16.9407 6.06759 24.3116 3.00926 32 3Z" fill="black"/>
<path d="M34.94 46.06C35.2243 46.325 35.6004 46.4692 35.989 46.4624C36.3776 46.4555 36.7484 46.2981 37.0232 46.0232C37.2981 45.7484 37.4555 45.3776 37.4623 44.989C37.4692 44.6004 37.325 44.2244 37.06 43.94L25.12 32L37.06 20.06C37.2074 19.9227 37.3256 19.7571 37.4076 19.5731C37.4895 19.3891 37.5336 19.1905 37.5372 18.989C37.5407 18.7876 37.5037 18.5876 37.4282 18.4008C37.3528 18.214 37.2405 18.0444 37.0981 17.9019C36.9556 17.7595 36.786 17.6472 36.5992 17.5718C36.4124 17.4963 36.2124 17.4593 36.011 17.4628C35.8095 17.4664 35.6109 17.5105 35.4269 17.5924C35.2429 17.6744 35.0773 17.7926 34.94 17.94L21.94 30.94C21.6591 31.2213 21.5013 31.6025 21.5013 32C21.5013 32.3975 21.6591 32.7787 21.94 33.06L34.94 46.06Z" fill="black"/>
</g>
<defs>
<clipPath id="clip0_19_505">
<rect width="64" height="64" fill="white" transform="translate(64 64) rotate(-180)"/>
</clipPath>
</defs>
</svg>
