<svg width="64" height="64" viewBox="0 0 64 64" fill="none" xmlns="http://www.w3.org/2000/svg">
<g clip-path="url(#clip0_19_501)">
<path d="M32 0C25.671 0 19.4841 1.87677 14.2218 5.39297C8.95939 8.90918 4.85787 13.9069 2.43587 19.7541C0.013865 25.6014 -0.619842 32.0355 0.614885 38.2429C1.84961 44.4503 4.89732 50.1521 9.3726 54.6274C13.8479 59.1027 19.5497 62.1504 25.7571 63.3851C31.9645 64.6199 38.3986 63.9861 44.2459 61.5641C50.0931 59.1421 55.0908 55.0406 58.607 49.7782C62.1232 44.5159 64 38.329 64 32C63.9907 23.5159 60.6164 15.382 54.6172 9.38282C48.618 3.38366 40.4841 0.00926428 32 0V0ZM32 61C26.2644 61 20.6575 59.2992 15.8885 56.1126C11.1195 52.9261 7.40245 48.3969 5.20751 43.0978C3.01257 37.7988 2.43827 31.9678 3.55724 26.3424C4.67621 20.7169 7.43819 15.5496 11.4939 11.4939C15.5496 7.43818 20.7169 4.6762 26.3424 3.55723C31.9678 2.43826 37.7988 3.01255 43.0978 5.20749C48.3969 7.40244 52.9261 11.1194 56.1126 15.8885C59.2992 20.6575 61 26.2643 61 32C60.9908 39.6884 57.9324 47.0593 52.4959 52.4959C47.0593 57.9324 39.6884 60.9907 32 61Z" fill="black"/>
<path d="M29.06 17.94C28.7757 17.675 28.3996 17.5308 28.011 17.5376C27.6224 17.5445 27.2516 17.7019 26.9768 17.9768C26.7019 18.2516 26.5445 18.6224 26.5377 19.011C26.5308 19.3996 26.675 19.7756 26.94 20.06L38.88 32L26.94 43.94C26.7926 44.0773 26.6744 44.2429 26.5924 44.4269C26.5105 44.6109 26.4664 44.8095 26.4628 45.011C26.4593 45.2124 26.4963 45.4124 26.5718 45.5992C26.6472 45.786 26.7595 45.9556 26.9019 46.0981C27.0444 46.2405 27.214 46.3528 27.4008 46.4282C27.5876 46.5037 27.7876 46.5407 27.989 46.5372C28.1905 46.5336 28.3891 46.4895 28.5731 46.4076C28.7571 46.3256 28.9227 46.2074 29.06 46.06L42.06 33.06C42.3409 32.7787 42.4987 32.3975 42.4987 32C42.4987 31.6025 42.3409 31.2213 42.06 30.94L29.06 17.94Z" fill="black"/>
</g>
<defs>
<clipPath id="clip0_19_501">
<rect width="64" height="64" fill="white"/>
</clipPath>
</defs>
</svg>
