<svg width="25" height="30" viewBox="0 0 25 30" fill="none" xmlns="http://www.w3.org/2000/svg">
<path d="M7.07213 20.2434L6.1914 20.1599L6.1914 21.3499L7.13856 21.3499L7.07213 20.2434ZM22.9045 21.0257C23.2216 20.5936 23.1795 19.893 22.8106 19.4609L16.7989 12.4193C16.43 11.9872 15.8739 11.9872 15.5569 12.4193C15.2399 12.8514 15.2819 13.552 15.6508 13.9841L20.9946 20.2433L16.4024 26.5026C16.0854 26.9347 16.1274 27.6353 16.4964 28.0674C16.8653 28.4995 17.4213 28.4995 17.7383 28.0674L22.9045 21.0257ZM6.19142 0.916543L6.1914 20.1599L7.95286 20.3268L7.95288 1.08346L6.19142 0.916543ZM7.13856 21.3499L22.303 21.3498L22.1701 19.1368L7.0057 19.1369L7.13856 21.3499Z" fill="#E8E8E8"/>
</svg>
