<svg width="11" height="15" viewBox="0 0 11 15" fill="none" xmlns="http://www.w3.org/2000/svg">
<path d="M1.63958 0.208234C1.46037 0.0711854 1.22334 -0.00342556 0.978425 0.000120875C0.733509 0.00366731 0.499831 0.0850943 0.326622 0.227246C0.153413 0.369397 0.0541953 0.561175 0.049874 0.762176C0.0455528 0.963177 0.136465 1.15771 0.303456 1.30478L7.82864 7.48065L0.303456 13.6565C0.210574 13.7275 0.136075 13.8132 0.0844045 13.9084C0.0327342 14.0035 0.00495024 14.1063 0.0027106 14.2105C0.000470966 14.3146 0.0238216 14.4181 0.0713689 14.5147C0.118916 14.6113 0.189687 14.6991 0.279458 14.7728C0.369229 14.8464 0.476162 14.9045 0.593877 14.9435C0.711593 14.9826 0.837679 15.0017 0.964615 14.9999C1.09155 14.998 1.21674 14.9752 1.3327 14.9328C1.44867 14.8904 1.55304 14.8293 1.63958 14.7531L9.83283 8.02892C10.0099 7.88345 10.1093 7.68625 10.1093 7.48065C10.1093 7.27504 10.0099 7.07785 9.83283 6.93237L1.63958 0.208234Z" fill="black"/>
</svg>
