<svg width="15" height="15" viewBox="0 0 15 15" fill="none" xmlns="http://www.w3.org/2000/svg">
<g clip-path="url(#clip0_146_46)">
<path d="M9.95 9.51877L11.4688 6.87502C11.8769 6.17838 12.092 5.38555 12.092 4.57815C12.092 3.77074 11.8769 2.97792 11.4688 2.28127C11.0651 1.58448 10.4854 1.00603 9.78777 0.603909C9.09011 0.201784 8.299 -0.0098877 7.49375 -0.0098877C6.6885 -0.0098877 5.89739 0.201784 5.19973 0.603909C4.50208 1.00603 3.92238 1.58448 3.51875 2.28127C3.11061 2.97792 2.89546 3.77074 2.89546 4.57815C2.89546 5.38555 3.11061 6.17838 3.51875 6.87502L5.0375 9.50627C2.5 9.81877 0 10.625 0 12.1875C0 14.1188 3.8875 15 7.5 15C11.1125 15 15 14.1188 15 12.1875C15 10.625 12.5 9.81877 9.95 9.51877ZM4.60625 2.91877C4.81802 2.52601 5.10641 2.17969 5.45434 1.90032C5.80228 1.62094 6.20271 1.41417 6.63195 1.29224C7.06119 1.17031 7.51052 1.13569 7.95337 1.19043C8.39622 1.24517 8.8236 1.38816 9.21023 1.61094C9.59686 1.83372 9.93489 2.13177 10.2043 2.48746C10.4738 2.84315 10.6691 3.24927 10.7789 3.68178C10.8887 4.11429 10.9106 4.56442 10.8433 5.00555C10.7761 5.44667 10.6211 5.86984 10.3875 6.25002L7.5 11.25L4.6125 6.25002C4.31794 5.74458 4.16223 5.17025 4.16113 4.58524C4.16003 4.00023 4.31359 3.42532 4.60625 2.91877ZM7.5 13.75C3.375 13.75 1.25 12.6563 1.25 12.1875C1.25 11.8563 2.59375 10.9688 5.7375 10.7L6.58125 12.1563C6.67469 12.3171 6.80873 12.4506 6.96996 12.5435C7.13119 12.6363 7.31397 12.6851 7.5 12.6851C7.68603 12.6851 7.86881 12.6363 8.03004 12.5435C8.19127 12.4506 8.32531 12.3171 8.41875 12.1563L9.2625 10.7C12.4062 10.9688 13.75 11.875 13.75 12.1875C13.75 12.6563 11.625 13.75 7.5 13.75Z" fill="black"/>
<path d="M7.5 5.625C8.19036 5.625 8.75 5.06536 8.75 4.375C8.75 3.68464 8.19036 3.125 7.5 3.125C6.80964 3.125 6.25 3.68464 6.25 4.375C6.25 5.06536 6.80964 5.625 7.5 5.625Z" fill="black"/>
</g>
<defs>
<clipPath id="clip0_146_46">
<rect width="15" height="15" fill="white"/>
</clipPath>
</defs>
</svg>
