<svg width="15" height="15" viewBox="0 0 15 15" fill="none" xmlns="http://www.w3.org/2000/svg">
<g opacity="0.15">
<path d="M13.5843 7.7745C15.069 6.2733 15.069 3.8307 13.5843 2.3295C12.8643 1.6011 11.9064 1.2 10.8876 1.2C10.8873 1.2 10.8873 1.2 10.8873 1.2C9.86851 1.2 8.91031 1.6011 8.19001 2.3295L7.50001 3.027L6.81001 2.3295C6.08971 1.6011 5.13181 1.2 4.11271 1.2C3.09391 1.2 2.13601 1.6011 1.41571 2.3295C-0.0689899 3.8307 -0.0689899 6.2733 1.41571 7.7745L7.50001 13.9266L13.5843 7.7745ZM1.84231 2.7513C2.44891 2.1378 3.25561 1.8 4.11271 1.8C4.97011 1.8 5.77681 2.1378 6.38341 2.7513L7.50001 3.8805L8.61661 2.7513C9.22321 2.1378 10.0299 1.8 10.8873 1.8C11.7447 1.8 12.5511 2.1378 13.1577 2.7513C14.4126 4.02 14.4126 6.084 13.1577 7.3527L7.50001 13.0734L1.84231 7.3527C0.58741 6.084 0.58741 4.0197 1.84231 2.7513Z" fill="black"/>
</g>
</svg>
